<?xml version="1.0" encoding="UTF-8"?>
<svg id="_レイヤー_1" data-name="レイヤー 1" xmlns="http://www.w3.org/2000/svg" viewBox="0 0 551.8 553.5">
  <defs>
    <style>
      .cls-1 {
        fill: #322d8e;
      }
    </style>
  </defs>
  <path d="M113.42.33C63.12,6.83,21.82,39.73,6.52,85.63,1.02,102.23-.38,112.23.22,132.13c.6,17.9,1.7,24.1,7.2,39.5,9.1,25,28.2,49.1,50.9,63.9,11.9,7.7,20.5,11.6,34.1,15.6,21.3,6.1,12.1,5.8,187.5,6.5,159.9.6,160.5.6,169.8,2.8,30.1,7,52.8,19.1,75.5,40.1,12.3,11.4,16.7,13.6,21.2,10.7,5.8-3.8,5.6-.3,5.2-103-.3-92.5-.4-94.3-2.5-103.8-6.1-26.7-16.8-47.2-34.4-65.4-18.2-18.8-39.3-30.5-66.8-37C440.92.33,429.92.23,278.42.03c-89.1-.1-163.3.1-165,.3Z"/>
  <path class="cls-1" d="M126.42,290.63c-23.5,1.5-44,7.6-61.9,18.3-33.9,20.3-56.8,53.8-63.2,92.6-2.2,13.8-1.6,37.7,1.4,50.2,6,24.6,17.4,45.2,35.2,62.9,18.2,18.3,39.6,30,66.5,36.3,8.9,2.1,10.3,2.1,166,2.5,108.4.2,159.5,0,165.2-.8,18.6-2.4,40.7-10.6,55.8-20.5,11.2-7.4,28.2-24.3,35.4-35,16.3-24.7,23.9-51.2,22.7-79-.8-20.2-4.6-35.1-13.7-54.2-14.7-30.8-47-58.4-79.5-67.8-21.1-6.1-11.4-5.8-171.4-6-80.6-.2-151.9.1-158.5.5Z"/>
</svg>